<svg width="97" height="97" viewBox="0 0 97 97" fill="none" xmlns="http://www.w3.org/2000/svg">
<path d="M62.3 87.95L62.45 82.95H50.55L50.4 87.95H62.25H62.3Z" fill="#4C4EAA"/>
<path d="M68 93.95L62.25 87.95H50.4L50.15 93.95H68Z" fill="white"/>
<path d="M67.9 96.95L68 93.95H50.15L50 96.95H67.9Z" fill="#EEA160"/>
<path d="M62.9 73.75C62.9 72.15 62.2667 70.7834 61 69.65C59.7667 68.5167 58.25 67.95 56.45 67.95C54.6833 67.95 53.1667 68.5167 51.9 69.65C50.6333 70.7834 50 72.15 50 73.75L50.55 82.95H62.45L62.9 73.75Z" fill="#676AC6"/>
<path d="M35.7 87.95L35.55 82.95H47.45L47.6 87.95H35.75H35.7Z" fill="#4C4EAA"/>
<path d="M30 93.95L35.75 87.95H47.6L47.85 93.95H30Z" fill="white"/>
<path d="M30.1 96.95L30 93.95H47.85L48 96.95H30.1Z" fill="#EEA160"/>
<path d="M35.1 73.75C35.1 72.15 35.7333 70.7834 37 69.65C38.2333 68.5167 39.75 67.95 41.55 67.95C43.3167 67.95 44.8333 68.5167 46.1 69.65C47.3667 70.7834 48 72.15 48 73.75L47.45 82.95H35.55L35.1 73.75Z" fill="#676AC6"/>
<path d="M71.0852 70.2452C69.0793 68.845 67.1981 67.2367 65.4418 65.4202C67.2774 62.0471 70.1579 59.2818 74.0833 57.1243C74.806 57.9046 75.562 58.6248 76.3514 59.2849C78.1445 60.8352 80.1979 62.0583 82.5115 62.9543C84.0138 63.5294 85.1001 64.5624 85.7704 66.0534C86.3998 67.5679 86.4388 69.0967 85.8872 70.6398C85.2799 72.1335 84.2147 73.2112 82.6916 73.8729C81.2329 74.5518 79.7201 74.595 78.1534 74.0027C76.3464 73.2769 74.6543 72.4439 73.0773 71.5037C72.3885 71.1121 71.7245 70.6926 71.0852 70.2452Z" fill="#BF7958"/>
<path d="M59.4722 53.3127C59.9271 51.7437 60.869 50.5467 62.2979 49.7218C63.7503 48.9377 65.2406 48.7849 66.7688 49.2634C68.3465 49.6861 69.536 50.5915 70.3374 51.9795C71.4043 53.9218 72.653 55.6368 74.0834 57.1243C70.1579 59.2818 67.2774 62.0471 65.4418 65.4202C63.3854 63.1783 61.5644 60.6371 59.9789 57.7966C59.2506 56.3936 59.0817 54.899 59.4722 53.3127Z" fill="#E7F3FC"/>
<path d="M65.677 68.0197L62.7303 65.1078L73.3134 54.5887L76.2248 57.4393L65.677 68.0197Z" fill="#BFD4E5"/>
<path d="M24.1504 67.9496C26.4503 67.1163 28.6836 66.0497 30.8502 64.7497C29.9502 61.0165 27.8836 57.5999 24.6503 54.5C23.7504 55.0667 22.8337 55.5667 21.9004 56C19.7672 57.0333 17.4672 57.6833 15.0006 57.9499C13.4007 58.1166 12.0841 58.8332 11.0508 60.0999C10.0508 61.3998 9.61747 62.8664 9.75079 64.4997C9.95079 66.0997 10.7008 67.4163 12.0007 68.4496C13.234 69.4829 14.684 69.9162 16.3506 69.7496C18.2839 69.5162 20.1338 69.1496 21.9004 68.6496C22.6671 68.4496 23.417 68.2163 24.1504 67.9496Z" fill="#BF7958"/>
<path d="M39.7499 54.6C39.7165 52.9667 39.1166 51.5668 37.9499 50.4002C36.75 49.2669 35.35 48.7335 33.7501 48.8002C32.1168 48.8002 30.7335 49.3669 29.6002 50.5002C28.0669 52.1001 26.417 53.4334 24.6503 54.5C27.8836 57.5999 29.9502 61.0165 30.8501 64.7497C33.4167 63.1164 35.8333 61.1332 38.0999 58.7999C39.1666 57.6333 39.7165 56.2333 39.7499 54.6Z" fill="#E7F3FC"/>
<path d="M29.9502 67.1996L33.5501 65.1497L26.0503 52.2501L22.5004 54.25L29.9502 67.1996Z" fill="#BFD4E5"/>
<path d="M63.6 73.85V68.9H33.55V73.85H63.6Z" fill="#BFD4E5"/>
<path d="M62.1 79.05C63.0334 77.7834 63.5334 76.05 63.6 73.85H33.55C33.6167 76.05 34.1167 77.7834 35.05 79.05H62.1Z" fill="#676AC6"/>
<path d="M66.8 55.25C67.5 51.65 66.6334 49.9167 64.2 50.05H32.9C30.4667 49.9167 29.6 51.65 30.3 55.25L33.55 68.9H63.6L66.8 55.25Z" fill="#E7F3FC"/>
<path d="M56.6 42.6C54.5 40.9 51.9834 40.05 49.05 40.05C46.1167 40.05 43.6 40.9 41.5 42.6C39.4334 44.4 38.4 46.55 38.4 49.05C38.4 49.2167 38.4167 49.3834 38.45 49.55C38.55 51.8167 39.5667 53.75 41.5 55.35C43.6 57.15 46.1167 58.05 49.05 58.05C51.9834 58.05 54.5 57.15 56.6 55.35C58.5334 53.75 59.55 51.8167 59.65 49.55C59.6834 49.3834 59.7 49.2167 59.7 49.05C59.7 46.55 58.6667 44.4 56.6 42.6Z" fill="#A8603F"/>
<path d="M45.85 69.1L31.75 70.35C32.0167 71.9834 32.3 73.7167 32.6 75.55L45.05 74.05C45.3834 72.5167 45.65 70.8667 45.85 69.1Z" fill="#D78B49"/>
<path d="M45.85 69.1C46.0834 66.7667 46.1667 64.25 46.1 61.55C41.6 58.7167 38.0334 54.4167 35.4 48.65L30.85 47.8C29.4834 50.2667 29.7834 57.7834 31.75 70.35L45.85 69.1Z" fill="#EEA160"/>
<path d="M65.85 70.35L51.75 69.1C51.95 70.8667 52.2167 72.5167 52.55 74.05L65 75.55C65.3 73.7167 65.5834 71.9834 65.85 70.35Z" fill="#D78B49"/>
<path d="M51.5 61.55C51.4334 64.25 51.5167 66.7667 51.75 69.1L65.85 70.35C67.8167 57.7834 68.1167 50.2667 66.75 47.8L62.2 48.65C59.5667 54.4167 56 58.7167 51.5 61.55Z" fill="#EEA160"/>
<path d="M35.95 49.05L33.9 52.65L47 60.25L49.05 56.6L35.95 49.05ZM62.15 49.05L49.05 56.6L51.1 60.25L64.2 52.65L62.15 49.05Z" fill="#BFD4E5"/>
<path d="M51.1 60.25L49.05 56.6L47 60.25H51.1Z" fill="#E7F3FC"/>
<path d="M90.1441 62.1625L89.2857 61.7525C85.3399 60.4773 81.8988 60.4217 78.9624 61.5858C85.1559 57.8751 88.9049 58.0583 90.2094 62.1355L90.1441 62.1625Z" fill="#A8603F"/>
<path d="M75.3947 73.5842C74.5761 73.2087 74.352 72.5745 74.7222 71.6815L78.9623 61.5858C81.8988 60.4217 85.3399 60.4773 89.2857 61.7525L90.1441 62.1625L90.2094 62.1355C91.2383 62.526 92.316 62.9729 93.4425 63.476L93.812 63.6292C94.6741 63.9867 94.9539 64.8785 94.6512 66.3047C94.278 68.4233 93.6929 70.3999 92.8961 72.2346C90.695 77.4564 85.1383 78.0211 76.2261 73.9289L75.3947 73.5842Z" fill="#BF7958"/>
<path d="M63.6448 41.55C59.7256 38.95 54.9773 37.65 49.4 37.65C43.8227 37.65 39.0242 38.95 35.0045 41.55C31.0853 44.2167 29.1257 47.4 29.1257 51.1C29.1257 54.8 31.0853 57.95 35.0045 60.55C39.0242 63.2167 43.8227 64.55 49.4 64.55C54.9773 64.55 59.7256 63.2167 63.6448 60.55C67.6645 57.95 69.6743 54.8 69.6743 51.1C69.6743 47.4 67.6645 44.2167 63.6448 41.55Z" fill="url(#paint0_radial_1_4605)"/>
<path d="M67.4956 9.86175L65.1453 5.00499C55.5674 3.11005 46.4779 2.34632 37.8766 2.71382C33.0647 2.82085 30.6488 4.81977 30.6289 8.71058L30.6296 10.4223C31.5342 8.1455 33.8034 6.96842 37.4371 6.89106C46.0346 6.55667 55.1222 7.33695 64.7 9.23189L67.4956 9.86175ZM77.4118 15.4546L77.7063 14.2306C78.6085 10.5439 77.0681 8.08107 73.0853 6.84215L68.1296 10.0368L72.6459 11.0194C75.4309 11.8829 77.0196 13.3613 77.4118 15.4546Z" fill="#454A51"/>
<path d="M72.6459 11.0194L68.1296 10.0368L67.6974 10.2881L67.4957 9.86174L64.7 9.23189C55.1222 7.33694 46.0346 6.55666 37.4371 6.89105C33.8034 6.96841 31.5342 8.14549 30.6296 10.4223L30.605 29.9523C30.6315 32.8753 32.3497 34.5367 35.7597 34.9365L66.648 38.5582C70.0911 38.962 72.147 37.7431 72.8158 34.9016L77.4118 15.4546C77.0196 13.3613 75.4309 11.8829 72.6459 11.0194Z" fill="#3C3E41"/>
<path d="M27.6779 29.156C25.9394 30.5295 24.9401 32.3254 24.6801 34.5435C24.42 36.7617 24.9767 38.74 26.3503 40.4784C27.7492 42.2869 29.5246 43.3174 31.6765 43.5697C33.8615 43.8259 35.8437 43.2361 37.623 41.8002C39.3284 40.4227 40.3111 38.6249 40.5712 36.4068C40.8313 34.1887 40.2911 32.2123 38.9506 30.4778C37.5517 28.6692 35.7598 27.6368 33.5747 27.3806C31.4228 27.1283 29.4572 27.7201 27.6779 29.156ZM28.8966 38.5116C28.0784 37.4759 27.7488 36.2794 27.9079 34.922C28.0593 33.6309 28.6567 32.543 29.7002 31.6585C30.7359 30.8402 31.8993 30.5068 33.1904 30.6582C34.5478 30.8173 35.6356 31.4147 36.4539 32.4504C37.2644 33.5523 37.594 34.7488 37.4426 36.04C37.2835 37.3973 36.686 38.4852 35.6504 39.3035C34.6108 40.1549 33.4123 40.501 32.055 40.3418C30.7638 40.1904 29.711 39.5803 28.8966 38.5116ZM64.4261 33.4648C62.6876 34.8384 61.6883 36.6342 61.4283 38.8524C61.1682 41.0705 61.7249 43.0488 63.0985 44.7872C64.4974 46.5958 66.2728 47.6262 68.4247 47.8785C70.6097 48.1347 72.5919 47.5449 74.3712 46.109C76.0766 44.7316 77.0593 42.9338 77.3194 40.7156C77.5795 38.4975 77.0393 36.5212 75.6988 34.7866C74.2999 32.978 72.5079 31.9457 70.3229 31.6895C68.171 31.4371 66.2054 32.0289 64.4261 33.4648ZM66.4484 35.9674C67.4841 35.1491 68.6475 34.8156 69.9386 34.967C71.2629 35.1223 72.3507 35.7197 73.2021 36.7593C74.0126 37.8611 74.3422 39.0577 74.1908 40.3488C74.0316 41.7062 73.4342 42.794 72.3986 43.6123C71.3259 44.4598 70.1274 44.8059 68.8032 44.6507C67.512 44.4993 66.4593 43.8892 65.6448 42.8204C64.7934 41.7808 64.4473 40.5824 64.6065 39.225C64.7579 37.9339 65.3718 36.848 66.4484 35.9674Z" fill="#BF7958"/>
<path d="M27.9079 34.922C27.7488 36.2794 28.0784 37.4759 28.8966 38.5116C29.7111 39.5803 30.7638 40.1904 32.055 40.3418C33.4124 40.501 34.6108 40.1549 35.6504 39.3035C36.686 38.4852 37.2835 37.3973 37.4426 36.04C37.594 34.7488 37.2644 33.5523 36.4539 32.4504C35.6356 31.4147 34.5478 30.8173 33.1904 30.6582C31.8993 30.5068 30.7359 30.8402 29.7002 31.6585C28.6567 32.543 28.0593 33.6309 27.9079 34.922ZM69.9386 34.967C68.6475 34.8156 67.4841 35.1491 66.4484 35.9674C65.3718 36.848 64.7579 37.9339 64.6065 39.225C64.4473 40.5824 64.7934 41.7808 65.6448 42.8204C66.4593 43.8892 67.512 44.4993 68.8032 44.6507C70.1274 44.8059 71.3259 44.4598 72.3986 43.6123C73.4342 42.794 74.0317 41.7062 74.1908 40.3488C74.3422 39.0577 74.0126 37.8611 73.2021 36.7593C72.3507 35.7197 71.2629 35.1223 69.9386 34.967Z" fill="#A8603F"/>
<path d="M61.5387 52.5081C65.1686 52.4639 67.4132 50.7805 68.2726 47.458L73.9324 21.9435L32.3673 17.0699L31.8422 49.0261L61.5387 52.5081Z" fill="#BF7958"/>
<path d="M38.9372 33.5974C38.8014 34.7561 39.0491 35.792 39.6804 36.7051C40.3701 37.6921 41.3109 38.2555 42.5027 38.3953C43.6284 38.5273 44.6243 38.191 45.4906 37.3864C46.3491 36.648 46.8462 35.6994 46.9821 34.5407C47.118 33.382 46.8537 32.3441 46.1893 31.4272C45.5288 30.4771 44.6357 29.9361 43.5101 29.8041C42.3182 29.6644 41.2746 29.9783 40.3791 30.7459C39.5537 31.4882 39.0731 32.4387 38.9372 33.5974ZM41.4027 34.0375L41.4319 33.7892C41.5465 33.0979 41.8481 32.5291 42.3367 32.083C42.8623 31.6076 43.4562 31.4088 44.1183 31.4864C44.8135 31.5679 45.3619 31.9007 45.7632 32.4848C46.1354 33.0318 46.2973 33.6549 46.2488 34.354L46.2197 34.6023C46.109 35.2606 45.8093 35.8128 45.3207 36.2589C44.7951 36.7343 44.1847 36.9312 43.4894 36.8497C42.8273 36.772 42.2956 36.4412 41.8942 35.8571C41.522 35.3101 41.3582 34.7035 41.4027 34.0375ZM56.515 38.679C57.2379 39.6699 58.1787 40.2333 59.3374 40.3692C60.4961 40.5051 61.4755 40.1668 62.2755 39.3544C63.2003 38.6238 63.7305 37.6792 63.8664 36.5204C64.0023 35.3617 63.7049 34.32 62.9743 33.3953C62.38 32.453 61.5035 31.9139 60.3447 31.7781C59.186 31.6422 58.1423 31.9561 57.2138 32.7198C56.3884 33.4621 55.9077 34.4126 55.7719 35.5713C55.636 36.7301 55.8837 37.7659 56.515 38.679ZM60.6115 34.2258C61.0168 34.7767 61.1952 35.4017 61.1468 36.1009L61.1177 36.3492C61.0069 37.0074 60.6907 37.5577 60.169 37.9999C59.6765 38.4792 59.0992 38.68 58.437 38.6023C57.7749 38.5247 57.21 38.19 56.7424 37.5981C56.4034 37.055 56.2561 36.4504 56.3007 35.7844L56.3414 35.4367C56.4483 34.8116 56.7295 34.274 57.185 33.824C57.7768 33.3564 58.4038 33.1614 59.0659 33.2391C59.728 33.3167 60.2432 33.6456 60.6115 34.2258Z" fill="white"/>
<path d="M41.4319 33.7892L41.4027 34.0375C41.3582 34.7035 41.522 35.3101 41.8942 35.8571C42.2956 36.4412 42.8273 36.772 43.4895 36.8497C44.1847 36.9312 44.7951 36.7343 45.3207 36.2589C45.8093 35.8128 46.109 35.2606 46.2197 34.6023L46.2489 34.354C46.2973 33.6549 46.1354 33.0318 45.7632 32.4848C45.3619 31.9007 44.8135 31.5679 44.1183 31.4864C43.4562 31.4088 42.8623 31.6076 42.3367 32.083C41.8481 32.5291 41.5465 33.0979 41.4319 33.7892ZM61.1468 36.1009C61.1952 35.4017 61.0168 34.7767 60.6115 34.2258C60.2432 33.6456 59.728 33.3167 59.0659 33.2391C58.4038 33.1614 57.7768 33.3564 57.185 33.824C56.7295 34.274 56.4483 34.8116 56.3414 35.4367L56.3007 35.7844C56.2561 36.4504 56.4034 37.055 56.7424 37.5981C57.21 38.19 57.7749 38.5247 58.437 38.6023C59.0992 38.68 59.6765 38.4792 60.169 37.9999C60.6907 37.5577 61.0069 37.0074 61.1177 36.3492L61.1468 36.1009Z" fill="#3C3E41"/>
<path d="M48.7891 31.581L49.3196 28.7737L38.6513 27.0194L38.1705 29.8325L48.7891 31.581ZM55.3781 29.4841L55.2448 32.338L65.9799 33.0933L66.1628 30.2452L55.3781 29.4841Z" fill="#3C3E41"/>
<path d="M50.539 39.841C48.1885 39.5654 46.1458 39.8125 44.411 40.5824C42.7872 41.2646 41.8061 42.19 41.4677 43.3585C41.3821 43.5163 41.3607 43.6984 41.4037 43.9048C41.4505 44.0781 41.5323 44.2387 41.6492 44.3866C41.7661 44.5346 41.9219 44.6368 42.1167 44.6932C44.9134 45.4574 47.6338 45.4408 50.278 44.6433C52.6329 46.0269 55.2757 46.6724 58.2064 46.5797C58.409 46.5699 58.5842 46.5066 58.7322 46.3897C58.8801 46.2728 58.9969 46.1354 59.0825 45.9777C59.172 45.7868 59.2099 45.6066 59.1962 45.4372C59.1042 44.2182 58.3472 43.0891 56.9253 42.0497C55.3825 40.8955 53.4524 40.1826 51.135 39.9109C51.0356 39.8992 50.9363 39.8876 50.837 39.8759C50.7377 39.8643 50.6384 39.8526 50.539 39.841Z" fill="#3C3E41"/>
<path d="M53.3316 40.0677C54.0481 39.6819 54.4432 39.1745 54.517 38.5454C54.5869 37.9495 54.3198 37.3644 53.7159 36.7902C53.1043 36.2822 52.3184 35.9719 51.3583 35.8593C50.4313 35.7506 49.6115 35.8726 48.899 36.2254C48.1786 36.6444 47.7835 37.1518 47.7136 37.7477C47.6399 38.3767 47.9069 38.9618 48.5146 39.5029C49.1186 40.0772 49.884 40.4186 50.811 40.5273C51.7711 40.6399 52.6113 40.4867 53.3316 40.0677Z" fill="#955435"/>
<path d="M33.1036 17.6596L33.0539 17.6538C32.3801 17.6755 31.7951 17.9425 31.2987 18.4549C30.8101 18.901 30.5766 19.461 30.5983 20.1347L30.6221 36.2471C30.6145 36.8839 30.8485 37.4651 31.3238 37.9907C31.8069 38.4501 32.3854 38.6689 33.0592 38.6472L33.1088 38.6531C33.7787 38.6645 34.3434 38.4286 34.8027 37.9455C35.2621 37.4624 35.4995 36.8693 35.5148 36.1663L35.4793 20.1533C35.4615 19.4464 35.2111 18.8633 34.728 18.4039C34.2779 17.9484 33.7365 17.7003 33.1036 17.6596ZM71.2775 22.6894C70.7343 23.0285 70.3723 23.5398 70.1915 24.2234L66.4528 39.7939C66.3051 40.4814 66.3988 41.1133 66.7339 41.6895C67.0691 42.2658 67.5639 42.6259 68.2182 42.7698L68.2679 42.7756C68.8853 42.9486 69.4821 42.8676 70.0584 42.5324C70.6756 42.1349 71.0541 41.6256 71.1941 41.0043L74.9444 25.3344C75.1214 24.684 75.0238 24.0852 74.6516 23.5381C74.2872 22.9249 73.7798 22.5297 73.1293 22.3528L73.0797 22.347C72.4214 22.2362 71.8207 22.3504 71.2775 22.6894Z" fill="#3C3E41"/>
<path d="M67.7177 25.1415C72.1145 24.2811 74.4177 22.9569 74.6273 21.1692C74.8331 19.4145 72.8831 17.726 68.7775 16.1035C64.738 14.4887 59.7125 13.4128 53.7008 12.8758C47.7515 12.3795 42.5784 12.5617 38.1816 13.4222C33.814 14.3197 31.5274 15.6457 31.3217 17.4004C31.112 19.1881 33.0454 20.8747 37.1219 22.4603C41.2236 24.1159 46.2492 25.1918 52.1985 25.688C58.2102 26.225 63.3833 26.0429 67.7177 25.1415Z" fill="#3C3E41"/>
<path d="M6.95591 58.0625L7.81431 57.6525C11.7601 56.3773 15.2012 56.3217 18.1376 57.4858C11.9441 53.775 8.19507 53.9583 6.89057 58.0355L6.95591 58.0625Z" fill="#A8603F"/>
<path d="M21.7053 69.4842C22.5238 69.1087 22.748 68.4745 22.3778 67.5815L18.1376 57.4858C15.2012 56.3217 11.7601 56.3773 7.81431 57.6525L6.95591 58.0625L6.89058 58.0355C5.8617 58.426 4.78401 58.8729 3.6575 59.376L3.288 59.5292C2.42585 59.8867 2.1461 60.7785 2.44875 62.2047C2.822 64.3233 3.40703 66.2999 4.20384 68.1346C6.40503 73.3564 11.9617 73.9211 20.8739 69.8289L21.7053 69.4842Z" fill="#BF7958"/>
<defs>
<radialGradient id="paint0_radial_1_4605" cx="0" cy="0" r="1" gradientUnits="userSpaceOnUse" gradientTransform="translate(49.4 51.1) scale(20.4816 13.5875)">
<stop stop-opacity="0.301961"/>
<stop offset="1" stop-opacity="0"/>
</radialGradient>
</defs>
</svg>
