<svg width="87" height="93" viewBox="0 0 87 93" fill="none" xmlns="http://www.w3.org/2000/svg">
<path d="M64.0119 68.0986L63.9652 68.1162C63.1503 68.3175 62.5255 68.7854 62.0905 69.5201C61.8731 69.8875 61.7357 70.278 61.6783 70.6917C61.6403 71.0624 61.6765 71.4408 61.7868 71.8267L62.6696 75.7159L64.1809 84.6595L81.4869 80.9479L80.9578 77.9941L74.3434 73.2255L68.7757 74.4758L67.74 70.3237C67.5076 69.5206 67.0241 68.9017 66.2894 68.4668C65.5859 68.0201 64.8268 67.8973 64.0119 68.0986ZM66.2435 70.8896C66.3538 71.2756 66.3158 71.6463 66.1295 72.0019C65.9003 72.338 65.5927 72.5613 65.2068 72.6716C64.8208 72.7819 64.4501 72.7439 64.0946 72.5576C63.7272 72.3402 63.4884 72.0385 63.3781 71.6525C63.2678 71.2666 63.3369 70.8841 63.5856 70.505C63.803 70.1376 64.1047 69.8988 64.4906 69.7885C64.8766 69.6782 65.2532 69.7317 65.6205 69.9492C65.9255 70.1902 66.1332 70.5037 66.2435 70.8896Z" fill="#334E63"/>
<path d="M66.1296 72.0019C66.3158 71.6463 66.3538 71.2756 66.2435 70.8897C66.1332 70.5037 65.9256 70.1902 65.6206 69.9492C65.2532 69.7317 64.8766 69.6782 64.4907 69.7885C64.1047 69.8988 63.803 70.1376 63.5856 70.505C63.337 70.8841 63.2678 71.2666 63.3781 71.6525C63.4884 72.0385 63.7273 72.3402 64.0946 72.5576C64.4501 72.7439 64.8209 72.7819 65.2068 72.6716C65.5927 72.5613 65.9003 72.338 66.1296 72.0019ZM54.4633 60.377C53.1394 61.3053 52.3353 62.5716 52.0511 64.1759C51.7786 65.8113 52.1125 67.3066 53.0526 68.6616C53.9809 69.9855 55.2687 70.7993 56.9159 71.1029C58.403 71.3601 59.6491 71.9224 60.6542 72.7896L60.6719 72.8364C61.5176 73.6108 62.1835 74.5707 62.6696 75.7159L61.7868 71.8267C61.6765 71.4408 61.6404 71.0624 61.6783 70.6917C61.7357 70.278 61.8731 69.8875 62.0906 69.5201C62.5255 68.7855 63.1504 68.3175 63.9652 68.1163L64.0119 68.0986C64.8268 67.8973 65.5859 68.0201 66.2894 68.4668C67.0241 68.9017 67.5076 69.5206 67.7401 70.3237L68.7757 74.4758L74.3434 73.2255C73.5998 70.9765 72.6872 68.9873 71.6056 67.2581C68.7339 62.9629 64.5151 60.3354 58.949 59.3755C57.3018 59.0719 55.8065 59.4057 54.4633 60.377Z" fill="#477CA6"/>
<path d="M48.8392 90L44.0674 84H38.2674L38.9767 79.65C39.1125 78.8167 38.9294 78.1 38.4272 77.5C37.925 76.9 37.2573 76.6 36.4239 76.6H36.3739C35.5406 76.6 34.775 76.9 34.0772 77.5C33.7283 77.8 33.4406 78.1333 33.2141 78.5C33.021 78.8667 32.8919 79.25 32.8267 79.65L30.3501 93H48.2501L48.8392 90ZM36.1386 78.35C36.5386 78.35 36.8641 78.5 37.1152 78.8C37.3663 79.1 37.4593 79.45 37.394 79.85C37.3288 80.25 37.1218 80.6 36.7729 80.9C36.4239 81.2 36.0495 81.35 35.6495 81.35C35.2495 81.35 34.9239 81.2 34.6729 80.9C34.4218 80.6 34.3288 80.25 34.394 79.85C34.4593 79.45 34.6663 79.1 35.0152 78.8C35.3641 78.5 35.7386 78.35 36.1386 78.35Z" fill="#334E63"/>
<path d="M37.1153 78.8C36.8642 78.5 36.5386 78.35 36.1386 78.35C35.7386 78.35 35.3642 78.5 35.0153 78.8C34.6663 79.1 34.4593 79.45 34.3941 79.85C34.3288 80.25 34.4218 80.6 34.6729 80.9C34.924 81.2 35.2495 81.35 35.6495 81.35C36.0495 81.35 36.424 81.2 36.7729 80.9C37.1218 80.6 37.3288 80.25 37.3941 79.85C37.4593 79.45 37.3663 79.1 37.1153 78.8ZM47.0326 69.8C47.2935 68.2 46.883 66.8333 45.8011 65.7C44.7525 64.5667 43.3282 64 41.5282 64C39.7616 64 38.1525 64.5667 36.7011 65.7C35.2496 66.8333 34.3935 68.2 34.1326 69.8L33.2142 78.5C33.4406 78.1333 33.7283 77.8 34.0772 77.5C34.775 76.9 35.5406 76.6 36.3739 76.6H36.4239C37.2573 76.6 37.925 76.9 38.4272 77.5C38.9294 78.1 39.1125 78.8167 38.9767 79.65L38.2674 84H44.0674H44.1174L47.0326 69.8Z" fill="#477CA6"/>
<path d="M17.3079 60.7308C18.0631 61.1668 18.8536 61.4307 19.6796 61.5227C18.3149 62.8976 17.0696 64.488 15.9437 66.2939C15.3815 67.201 14.5335 67.7699 13.3996 68.0005C12.3402 68.2356 11.328 68.0554 10.3632 67.4599C9.39835 66.8644 8.76951 66.0203 8.47666 64.9275C8.25822 63.8392 8.43008 62.8414 8.99224 61.9343C10.6086 59.3643 12.4005 57.1272 14.3678 55.2231C14.2916 55.8908 14.3547 56.5815 14.5571 57.2953C15.0053 58.7857 15.9222 59.9308 17.3079 60.7308ZM22.9325 50.988C22.3365 50.6439 21.738 50.4138 21.1371 50.2979C24.3487 48.6116 27.8964 47.5998 31.7803 47.2627C32.9219 47.152 33.9417 47.4521 34.8399 48.1631C35.7381 48.8741 36.2448 49.7631 36.3599 50.8303C36.5329 51.9309 36.2722 52.9158 35.5779 53.7851C34.8713 54.6089 33.9617 55.0844 32.849 55.2118C30.3201 55.464 27.9751 56.0924 25.8141 57.097C25.9825 56.2686 25.945 55.4002 25.7016 54.4918C25.2412 52.9559 24.3182 51.7879 22.9325 50.988ZM22.2768 54.8239C22.3256 55.0061 22.3516 55.1943 22.3549 55.3887C22.3981 55.9139 22.278 56.4219 21.9947 56.9127C21.6113 57.5766 21.0554 58.0062 20.3269 58.2015C19.5695 58.38 18.8444 58.2693 18.1516 57.8693C17.6319 57.5694 17.2367 57.1872 16.9659 56.723C16.9171 56.5408 16.8683 56.3587 16.8195 56.1766C16.7052 55.8412 16.6403 55.5536 16.6248 55.3137C16.6516 54.8673 16.7817 54.442 17.015 54.0379C17.3983 53.3739 17.9831 52.961 18.7694 52.7991C19.4979 52.6038 20.2086 52.7062 20.9014 53.1062C21.3344 53.3562 21.6597 53.6594 21.8772 54.016C22.0415 54.2648 22.1747 54.5341 22.2768 54.8239Z" fill="#477CA6"/>
<path d="M14.3678 55.2231C14.3999 54.4341 14.6245 53.6785 15.0414 52.9562C15.808 51.6283 16.9799 50.7653 18.5569 50.3671C19.4296 50.1471 20.2896 50.124 21.1371 50.2979C21.738 50.4138 22.3364 50.6439 22.9325 50.988C24.3182 51.7879 25.2412 52.9559 25.7016 54.4918C25.945 55.4002 25.9825 56.2686 25.8141 57.097C25.7042 57.6874 25.4908 58.257 25.174 58.8059C24.4073 60.1338 23.25 61.0052 21.7018 61.42C20.9995 61.5749 20.3254 61.6091 19.6796 61.5227C18.8536 61.4307 18.063 61.1668 17.3079 60.7308C15.9222 59.9309 15.0053 58.7857 14.5571 57.2953C14.3547 56.5815 14.2916 55.8908 14.3678 55.2231ZM22.3549 55.3887C22.3516 55.1943 22.3256 55.0061 22.2768 54.824C22.1747 54.5341 22.0415 54.2648 21.8772 54.016C21.6597 53.6594 21.3344 53.3562 20.9014 53.1062C20.2086 52.7062 19.4979 52.6038 18.7694 52.7991C17.9831 52.961 17.3983 53.3739 17.015 54.0379C16.7817 54.442 16.6516 54.8673 16.6248 55.3137C16.6403 55.5536 16.7052 55.8412 16.8195 56.1766C16.8683 56.3587 16.9171 56.5408 16.9659 56.723C17.2367 57.1872 17.6319 57.5694 18.1516 57.8693C18.8444 58.2693 19.5695 58.38 20.3269 58.2015C21.0554 58.0062 21.6113 57.5766 21.9946 56.9127C22.278 56.4219 22.398 55.9139 22.3549 55.3887Z" fill="#334E63"/>
<path d="M70.2524 31.395C69.387 31.2882 68.5561 31.3536 67.7597 31.5911C68.4799 29.7928 69.0061 27.8426 69.3382 25.7406C69.502 24.686 70.0609 23.8314 71.0149 23.1767C71.8987 22.5469 72.9009 22.318 74.0216 22.4899C75.1423 22.6618 76.0507 23.1937 76.7466 24.0857C77.3723 25.0026 77.6033 25.9883 77.4396 27.0428C76.9539 30.0398 76.1768 32.7986 75.1082 35.3193C74.9178 34.6748 74.5903 34.0634 74.1255 33.4852C73.1314 32.2877 71.8403 31.591 70.2524 31.395ZM68.8743 42.56C69.5574 42.6444 70.1982 42.6227 70.7967 42.4951C68.4975 45.3006 65.6256 47.6162 62.181 49.4418C61.1731 49.9891 60.1169 50.1106 59.0126 49.8064C57.9082 49.5021 57.0948 48.8812 56.5725 47.9435C55.9839 46.9976 55.8397 45.989 56.1399 44.9177C56.469 43.8836 57.121 43.0909 58.0959 42.5395C60.326 41.3207 62.24 39.8273 63.8379 38.0593C64.006 38.8878 64.3793 39.6727 64.9578 40.4141C65.9809 41.6488 67.2864 42.3641 68.8743 42.56ZM67.9816 38.7722C67.8656 38.6236 67.7682 38.4604 67.6894 38.2828C67.4448 37.816 67.3571 37.3014 67.4266 36.739C67.5205 35.9781 67.8647 35.3657 68.4594 34.9017C69.0871 34.4418 69.7979 34.2609 70.5919 34.3589C71.1874 34.4324 71.7003 34.63 72.1308 34.9518C72.2468 35.1005 72.3628 35.2492 72.4788 35.3978C72.7149 35.6621 72.8868 35.9016 72.9946 36.1164C73.1441 36.5379 73.1903 36.9802 73.1331 37.4433C73.0392 38.2042 72.6619 38.8126 72.001 39.2684C71.4064 39.7323 70.7121 39.9153 69.9182 39.8173C69.4219 39.7561 69.0041 39.6037 68.6647 39.3603C68.4164 39.1954 68.1887 38.9993 67.9816 38.7722Z" fill="#477CA6"/>
<path d="M75.1082 35.3193C75.3864 36.0583 75.4744 36.8417 75.3723 37.6693C75.1845 39.1911 74.4422 40.4429 73.1455 41.4248C72.4278 41.9677 71.6449 42.3245 70.7968 42.4951C70.1982 42.6227 69.5574 42.6444 68.8744 42.5601C67.2864 42.3641 65.9809 41.6488 64.9578 40.4142C64.3793 39.6727 64.006 38.8878 63.8379 38.0593C63.7088 37.4728 63.683 36.8651 63.7607 36.2361C63.9485 34.7144 64.6742 33.4605 65.9378 32.4746C66.5241 32.058 67.1314 31.7635 67.7597 31.5911C68.5561 31.3536 69.387 31.2882 70.2525 31.395C71.8404 31.591 73.1314 32.2877 74.1255 33.4852C74.5903 34.0634 74.9179 34.6748 75.1082 35.3193ZM67.6894 38.2828C67.7683 38.4604 67.8657 38.6236 67.9817 38.7723C68.1887 38.9993 68.4164 39.1954 68.6648 39.3603C69.0042 39.6038 69.422 39.7561 69.9182 39.8173C70.7121 39.9153 71.4064 39.7323 72.0011 39.2684C72.6619 38.8126 73.0392 38.2042 73.1332 37.4433C73.1903 36.9802 73.1442 36.5379 72.9947 36.1164C72.8868 35.9016 72.7149 35.6621 72.4788 35.3978C72.3628 35.2492 72.2468 35.1005 72.1308 34.9518C71.7004 34.63 71.1874 34.4324 70.5919 34.3589C69.798 34.2609 69.0871 34.4418 68.4594 34.9017C67.8648 35.3657 67.5205 35.9781 67.4266 36.739C67.3572 37.3014 67.4448 37.816 67.6894 38.2828Z" fill="#334E63"/>
<path d="M31.7694 52.4626C32.8309 50.9903 33.2061 49.3677 32.8949 47.5947C32.5838 45.8218 31.6785 44.4239 30.1791 43.401C28.7126 42.3723 27.0929 42.0136 25.3199 42.3247C23.547 42.6358 22.1626 43.5218 21.1668 44.9826C20.1381 46.4492 19.7794 48.0689 20.0905 49.8418C20.4016 51.6147 21.2905 53.0155 22.757 54.0442C24.1908 55.0786 25.7941 55.4403 27.567 55.1291C29.3399 54.818 30.7407 53.9291 31.7694 52.4626ZM65.3071 46.577C66.3358 45.1104 66.6945 43.4907 66.3834 41.7178C66.0723 39.9449 65.1834 38.5441 63.7169 37.5154C62.2503 36.4868 60.6306 36.128 58.8577 36.4391C57.0847 36.7503 55.7004 37.6362 54.7045 39.097C53.643 40.5693 53.2678 42.1919 53.579 43.9649C53.8901 45.7378 54.7954 47.1357 56.2948 48.1586C57.7285 49.193 59.3318 49.5547 61.1047 49.2435C62.8776 48.9324 64.2784 48.0436 65.3071 46.577Z" fill="#334E63"/>
<path d="M61.1887 70.5498C61.8833 69.1081 62.0733 67.298 61.7587 65.1195L32.3085 70.2878C32.7545 72.4432 33.5494 74.0804 34.6934 75.1995L61.1887 70.5498Z" fill="#5393C5"/>
<path d="M54.3445 61.3442C54.9774 59.7441 55.1326 58.0247 54.8099 56.1861C54.349 53.5596 53.035 51.4719 50.868 49.9232C48.6682 48.3802 46.255 47.8391 43.6285 48.3001C41.0019 48.761 38.9171 50.0914 37.3741 52.2912C35.8311 54.4911 35.2901 56.9042 35.7511 59.5308C36.0737 61.3694 36.8214 62.9303 37.9942 64.2136L31.4443 65.363L32.3086 70.2878L61.7587 65.1196L60.8944 60.1948L54.3445 61.3442ZM50.0112 55.4546L49.2935 60.9108C49.2837 61.0479 49.2218 61.1772 49.1078 61.2987C48.9937 61.4203 48.8546 61.4954 48.6905 61.5242L43.5195 62.4317C43.3881 62.4548 43.2482 62.4286 43.0995 62.3531C42.9181 62.2834 42.7994 62.1858 42.7436 62.0602L40.2109 57.1744C40.1493 57.016 40.1205 56.8519 40.1245 56.6819C40.1671 56.5391 40.2426 56.3905 40.3508 56.2361L44.0417 52.3902C44.1229 52.2745 44.2456 52.2022 44.4097 52.1734C44.541 52.1503 44.6974 52.1736 44.8789 52.2433L49.6094 54.6113C49.731 54.7253 49.8361 54.8423 49.9248 54.9621C49.9864 55.1205 50.0152 55.2846 50.0112 55.4546Z" fill="#334E63"/>
<path d="M49.2935 60.9108L50.0112 55.4546C50.0153 55.2846 49.9864 55.1205 49.9248 54.9621C49.8361 54.8423 49.731 54.7254 49.6094 54.6113L44.8789 52.2433C44.6974 52.1736 44.5411 52.1503 44.4097 52.1734C44.2456 52.2022 44.1229 52.2745 44.0417 52.3903L40.3508 56.2361C40.2426 56.3905 40.1671 56.5391 40.1245 56.682C40.1205 56.8519 40.1493 57.016 40.2109 57.1744L42.7436 62.0602C42.7995 62.1858 42.9181 62.2834 43.0996 62.3531C43.2482 62.4286 43.3881 62.4548 43.5195 62.4317L48.6905 61.5243C48.8546 61.4954 48.9937 61.4203 49.1078 61.2987C49.2218 61.1772 49.2837 61.0479 49.2935 60.9108Z" fill="#FF6699"/>
<path d="M61.7188 46.0899C61.9635 42.6627 60.9223 41.0686 58.5952 41.3078L53.3257 42.2325C53.3142 42.1669 53.2998 42.0848 53.2825 41.9863C53.2865 41.8164 53.2741 41.6493 53.2453 41.4852C52.8132 39.0228 51.4402 37.0809 49.1263 35.6594C46.7641 34.348 44.1383 33.9458 41.2491 34.4528C38.3599 34.9598 36.0281 36.2321 34.2535 38.2695C32.5619 40.3939 31.9321 42.6872 32.3643 45.1496C32.3931 45.3138 32.4383 45.4751 32.5 45.6335C32.5172 45.732 32.5481 45.8112 32.5924 45.8711L27.5199 46.7613C25.1001 47.0505 24.549 48.924 25.8665 52.3817L31.4443 65.363L37.9942 64.2136C36.8214 62.9303 36.0737 61.3694 35.751 59.5308C35.2901 56.9042 35.8311 54.4911 37.3741 52.2912C38.9171 50.0914 41.0019 48.761 43.6285 48.3001C46.255 47.8391 48.6682 48.3802 50.868 49.9232C53.035 51.4719 54.349 53.5596 54.8099 56.1861C55.1326 58.0247 54.9774 59.7441 54.3445 61.3442L60.8944 60.1948L61.7188 46.0899Z" fill="#477CA6"/>
<path d="M58.6562 30.25C55.1741 27.65 50.9553 26.35 46 26.35C41.0447 26.35 36.7813 27.65 33.2099 30.25C29.7278 32.9167 27.9867 36.1 27.9867 39.8C27.9867 43.5 29.7278 46.65 33.2099 49.25C36.7813 51.9167 41.0447 53.25 46 53.25C50.9553 53.25 55.1741 51.9167 58.6562 49.25C62.2276 46.65 64.0133 43.5 64.0133 39.8C64.0133 36.1 62.2276 32.9167 58.6562 30.25Z" fill="url(#paint0_radial_2_13413)"/>
<path d="M58.1077 30.5484C61.4971 27.1046 63.1607 22.9662 63.0986 18.1334C63.0365 13.3005 61.2669 9.18956 57.7897 5.80065C54.3126 2.41174 50.1576 0.74834 45.3247 0.810439C40.4918 0.872537 36.3809 2.64215 32.992 6.11928C29.6031 9.59641 27.9397 13.7514 28.0018 18.5843C28.0639 23.4172 29.8333 27.5114 33.31 30.867C36.7875 34.2893 40.9428 35.9693 45.7757 35.9072C50.6086 35.8451 54.7192 34.0588 58.1077 30.5484ZM55.4993 18.231C55.5344 20.9641 54.5978 23.3096 52.6895 25.2676C50.7483 27.2594 48.4111 28.2728 45.678 28.3079C42.9449 28.343 40.5992 27.3898 38.6408 25.4481C36.6494 23.5402 35.6362 21.2198 35.6011 18.4867C35.566 15.7536 36.5192 13.4078 38.4609 11.4494C40.3688 9.45808 42.6893 8.44486 45.4223 8.40974C48.1554 8.37463 50.5178 9.32768 52.5096 11.2689C54.4676 13.1772 55.4642 15.4979 55.4993 18.231Z" fill="#BFD4E5"/>
<path d="M52.6895 25.2676C54.5978 23.3096 55.5344 20.9641 55.4993 18.231C55.4642 15.4979 54.4676 13.1772 52.5096 11.2689C50.5179 9.32768 48.1554 8.37463 45.4224 8.40975C42.6893 8.44486 40.3688 9.45808 38.4609 11.4494C36.5193 13.4078 35.566 15.7536 35.6011 18.4867C35.6362 21.2198 36.6494 23.5402 38.6408 25.4481C40.5992 27.3898 42.9449 28.343 45.678 28.3079C48.4111 28.2728 50.7483 27.2594 52.6895 25.2676Z" fill="white"/>
<path d="M29.9603 7.55835C29.3317 7.93312 28.9222 8.48842 28.7316 9.22426L26.6372 17.4518C26.4466 18.1876 26.5391 18.9031 26.9148 19.5984C27.3562 20.2261 27.9448 20.6352 28.6807 20.8258L28.7307 20.8251C29.4665 21.0157 30.1656 20.94 30.8279 20.5982C31.4889 20.1563 31.9147 19.5675 32.1053 18.8316L34.1497 10.6047C34.3403 9.86891 34.2313 9.17026 33.8228 8.50879C33.4476 7.8469 32.9087 7.42046 32.2062 7.22947L32.1562 7.23011C31.4204 7.03955 30.6884 7.14896 29.9603 7.55835Z" fill="#477CA6"/>
<path d="M62.2785 8.7932C62.0691 8.06251 61.6454 7.51791 61.0074 7.15941C60.269 6.76887 59.5345 6.6783 58.8038 6.88771L58.7538 6.88835C58.0231 7.09775 57.4787 7.53811 57.1206 8.20943C56.7292 8.88117 56.6383 9.5824 56.8477 10.3131L59.1528 18.4841C59.3622 19.2148 59.803 19.7925 60.4752 20.2172C61.1461 20.542 61.8469 20.5996 62.5776 20.3902L62.6275 20.3896C63.3249 20.1806 63.8862 19.7567 64.3113 19.1178C64.669 18.4132 64.7431 17.6955 64.5337 16.9648L62.2785 8.7932Z" fill="#477CA6"/>
<path d="M21.561 27.1177C20.0146 28.7043 19.2555 30.5976 19.2838 32.7974C19.312 34.9972 20.1193 36.8536 21.7055 38.3667C23.3259 39.946 25.2194 40.7217 27.3858 40.6939C29.5856 40.6656 31.4752 39.8413 33.0545 38.2208C34.568 36.6679 35.3106 34.7916 35.2823 32.5918C35.2541 30.392 34.4633 28.5187 32.9099 26.9719C31.2895 25.3926 29.3794 24.6171 27.1796 24.6453C25.0132 24.6732 23.1403 25.4973 21.561 27.1177ZM23.977 36.1373C23.0318 35.2161 22.5506 34.0888 22.5335 32.7556C22.5168 31.4557 22.9688 30.3165 23.8897 29.3379C24.8109 28.3927 25.9215 27.9117 27.2214 27.895C28.5879 27.8775 29.7438 28.3293 30.6891 29.2506C31.6347 30.2052 32.1159 31.3324 32.1326 32.6323C32.1497 33.9655 31.6977 35.1047 30.7764 36.05C29.8556 37.0285 28.7119 37.5266 27.3454 37.5441C26.0455 37.5608 24.9227 37.0919 23.977 36.1373ZM64.1762 24.17C62.0098 24.1978 60.1369 25.0219 58.5576 26.6423C57.0112 28.229 56.2521 30.1222 56.2804 32.322C56.3087 34.5218 57.1159 36.3782 58.7021 37.8913C60.3225 39.4706 62.216 40.2463 64.3824 40.2185C66.5822 40.1902 68.4718 39.3659 70.0511 37.7455C71.5646 36.1926 72.3072 34.3162 72.2789 32.1164C72.2507 29.9166 71.4599 28.0433 69.9066 26.4965C68.2861 24.9172 66.376 24.1417 64.1762 24.17ZM64.342 37.0688C63.0421 37.0855 61.9193 36.6165 60.9737 35.6619C59.9951 34.7411 59.4972 33.6141 59.4801 32.2809C59.4634 30.981 59.9321 29.8416 60.8863 28.8626C61.8075 27.9173 62.9181 27.4364 64.218 27.4197C65.5512 27.4025 66.7071 27.8544 67.6857 28.7752C68.6313 29.7298 69.1125 30.857 69.1292 32.1569C69.1463 33.4901 68.6943 34.6293 67.773 35.5746C66.8189 36.5536 65.6752 37.0516 64.342 37.0688Z" fill="#5393C5"/>
<path d="M22.5335 32.7556C22.5506 34.0888 23.0318 35.2161 23.977 36.1373C24.9227 37.0919 26.0455 37.5608 27.3453 37.5441C28.7119 37.5266 29.8556 37.0285 30.7764 36.05C31.6977 35.1047 32.1497 33.9655 32.1326 32.6323C32.1159 31.3324 31.6347 30.2052 30.689 29.2506C29.7438 28.3293 28.5879 27.8775 27.2214 27.895C25.9215 27.9117 24.8109 28.3927 23.8897 29.3379C22.9688 30.3165 22.5168 31.4557 22.5335 32.7556ZM60.9736 35.6619C61.9193 36.6165 63.0421 37.0855 64.342 37.0688C65.6752 37.0516 66.8189 36.5536 67.773 35.5746C68.6943 34.6293 69.1463 33.4901 69.1292 32.1569C69.1125 30.857 68.6313 29.7298 67.6857 28.7752C66.7071 27.8544 65.5512 27.4025 64.218 27.4197C62.9181 27.4364 61.8075 27.9173 60.8863 28.8626C59.9321 29.8416 59.4634 30.981 59.4801 32.2809C59.4972 33.6141 59.9951 34.7411 60.9736 35.6619Z" fill="#477CA6"/>
<path d="M28.2545 46.0331L36.2537 45.9303C36.1365 39.398 32.9823 35.2049 26.7914 33.3509L28.2545 46.0331ZM58.1517 45.6489C61.7121 45.1365 63.7208 43.2105 64.1779 39.8711L64.9654 31.1103C58.9725 34.2875 55.9013 39.144 55.7519 45.6798L58.1517 45.6489Z" fill="#334E63"/>
<path d="M64.9654 31.1103L66.4981 14.1894L24.652 14.7271L26.7914 33.3509C32.9824 35.2049 36.1365 39.398 36.2537 45.9303L55.7519 45.6798C55.9013 39.144 58.9725 34.2876 64.9654 31.1103Z" fill="#5393C5"/>
<path d="M51.7404 33.1304C53.2868 31.5437 54.0459 29.6505 54.0176 27.4507C53.9889 25.2176 53.1815 23.3445 51.5953 21.8314C50.0086 20.285 48.1154 19.526 45.9156 19.5542C43.6825 19.5829 41.8094 20.3904 40.2963 21.9766C38.7495 23.5299 37.9904 25.4232 38.0191 27.6563C38.0474 29.8561 38.8548 31.7292 40.4415 33.2756C41.9948 34.8224 43.888 35.5815 46.1212 35.5528C48.321 35.5245 50.194 34.717 51.7404 33.1304ZM51.3679 27.4848C51.3867 28.9513 50.8695 30.208 49.8162 31.255C48.7967 32.3348 47.5536 32.8842 46.0871 32.903C44.5872 32.9223 43.2972 32.4055 42.2169 31.3526C41.1704 30.3327 40.6377 29.0894 40.6189 27.6229C40.5996 26.123 41.0997 24.8332 42.1193 23.7533C43.173 22.7397 44.4498 22.2233 45.9496 22.204C47.4162 22.1851 48.6725 22.669 49.7186 23.6557C50.7988 24.7085 51.3486 25.9849 51.3679 27.4848Z" fill="#477CA6"/>
<path d="M49.8162 31.255C50.8695 30.208 51.3867 28.9513 51.3679 27.4848C51.3486 25.9849 50.7988 24.7085 49.7185 23.6557C48.6725 22.669 47.4161 22.1851 45.9496 22.204C44.4498 22.2233 43.173 22.7397 42.1192 23.7533C41.0997 24.8332 40.5996 26.123 40.6188 27.6229C40.6377 29.0894 41.1704 30.3327 42.2169 31.3526C43.2972 32.4055 44.5872 32.9223 46.0871 32.903C47.5536 32.8842 48.7967 32.3348 49.8162 31.255ZM49.1181 27.5137C49.1258 28.1136 48.9156 28.6163 48.4874 29.0219C48.1263 29.4599 47.6458 29.6827 47.0459 29.6904C46.4459 29.6982 45.9265 29.4881 45.4877 29.0604C45.0826 28.6656 44.8762 28.1682 44.8685 27.5683C44.8607 26.9683 45.0541 26.4491 45.4485 26.0107C45.8766 25.6052 46.3907 25.3986 46.9906 25.3908C47.5906 25.3831 48.0764 25.5769 48.4482 25.9722C48.8871 26.3999 49.1104 26.9137 49.1181 27.5137Z" fill="#FFCC00"/>
<path d="M48.4874 29.0219C48.9156 28.6164 49.1258 28.1136 49.1181 27.5137C49.1104 26.9137 48.8871 26.3999 48.4483 25.9722C48.0765 25.5769 47.5906 25.3831 46.9907 25.3908C46.3907 25.3986 45.8767 25.6052 45.4485 26.0107C45.0541 26.4491 44.8608 26.9683 44.8685 27.5683C44.8762 28.1682 45.0826 28.6656 45.4877 29.0604C45.9266 29.4882 46.446 29.6982 47.0459 29.6905C47.6459 29.6827 48.1264 29.4599 48.4874 29.0219Z" fill="white"/>
<path d="M61.3972 29.7061C61.9898 29.1317 62.281 28.4446 62.2707 27.6447C62.2605 26.8448 61.9515 26.1487 61.3438 25.5564C60.7699 24.9971 60.083 24.7226 59.2831 24.7329C58.4832 24.7431 57.7869 25.0354 57.1942 25.6098C56.6353 26.217 56.361 26.9206 56.3713 27.7205C56.3816 28.5204 56.6736 29.2001 57.2475 29.7594C57.8548 30.3183 58.5583 30.5926 59.3583 30.5823C60.1582 30.5721 60.8378 30.28 61.3972 29.7061Z" fill="#477CA6"/>
<path d="M34.6996 30.0491C35.2922 29.4748 35.5834 28.7877 35.5732 27.9877C35.5629 27.1878 35.2539 26.4917 34.6463 25.8995C34.0724 25.3401 33.4021 25.0654 32.6355 25.0753C31.8356 25.0855 31.1393 25.3778 30.5466 25.9522C29.9877 26.5594 29.7134 27.263 29.7237 28.0629C29.734 28.8628 30.0261 29.5424 30.6 30.1018C31.2072 30.6607 31.9108 30.935 32.7107 30.9247C33.4773 30.9149 34.1402 30.623 34.6996 30.0491Z" fill="#477CA6"/>
<path d="M56.3172 19.6206C55.4078 18.8989 54.3032 18.5464 53.0034 18.5631L39.3046 18.7391C38.0047 18.7558 36.8929 19.1368 35.9691 19.8821C35.079 20.6602 34.6408 21.5826 34.6545 22.6491C34.6682 23.7157 35.1297 24.6099 36.0391 25.3316C36.9822 26.0862 38.1037 26.4551 39.4035 26.4384L53.1023 26.2624C54.4022 26.2457 55.4971 25.8483 56.3872 25.0701C57.311 24.3248 57.7661 23.4189 57.7524 22.3524C57.7387 21.2858 57.2603 20.3752 56.3172 19.6206Z" fill="#5393C5"/>
<path d="M47.2276 39.9389C47.0912 39.7073 46.8727 39.5601 46.5718 39.4973L40.7512 37.9219C40.4499 37.8258 40.1501 37.8463 39.8519 37.9835C39.6207 38.1531 39.4739 38.405 39.4116 38.7392C39.3159 39.0738 39.3364 39.3736 39.4731 39.6385C39.6432 39.903 39.8789 40.0833 40.1801 40.1794L46.0008 41.7548C46.3016 41.8176 46.5843 41.7639 46.8488 41.5939C47.0804 41.4575 47.244 41.2221 47.3398 40.8875C47.4021 40.5533 47.3647 40.2371 47.2276 39.9389Z" fill="#334E63"/>
<path d="M78.5791 16.152C78.4881 16.1764 78.4531 16.137 78.4742 16.0337C78.4665 15.9138 78.4815 15.7877 78.5193 15.6556L80.2693 12.6245C80.3193 12.5379 80.4293 12.4475 80.5992 12.3531C80.6736 12.3576 80.7541 12.3848 80.8407 12.4348C82.4406 13.397 83.4846 14.7888 83.9726 16.6102L84.0159 16.6352C84.5283 18.5476 84.3134 20.3865 83.3711 22.1518C82.3833 23.9294 80.9621 25.091 79.1074 25.6368L78.9025 25.6917C79.0719 25.3618 79.1975 25.0109 79.2793 24.6391C79.6182 23.373 79.4748 22.1548 78.8491 20.9843C79.1757 20.7519 79.4395 20.4616 79.6406 20.1134C79.9662 19.4162 80.0686 18.7055 79.9478 17.9814C79.9189 17.9647 79.8839 17.9253 79.8429 17.8631C79.6765 17.1512 79.2553 16.5809 78.5791 16.152ZM69.0888 23.4897C68.8798 23.2989 68.6678 23.0995 68.4527 22.8915C67.0528 21.5829 66.3243 19.9114 66.2672 17.877C66.2679 15.8759 66.9392 14.1465 68.2811 12.6889C68.2978 12.6601 68.3144 12.6312 68.3311 12.6023C69.6808 11.2646 71.284 10.5544 73.1407 10.4718C73.2607 10.464 73.3639 10.4852 73.4505 10.5352C73.4916 10.5974 73.5016 10.6801 73.4805 10.7834L73.6442 14.3997C73.6686 14.4908 73.6641 14.5652 73.6308 14.6229C73.5064 14.705 73.3986 14.7583 73.3076 14.7827C72.588 14.8291 71.9582 15.1199 71.4184 15.6549C71.4017 15.6838 71.385 15.7127 71.3684 15.7415C70.8574 16.2933 70.6084 16.9578 70.6215 17.7352C70.6403 18.3506 70.7951 18.8826 71.0857 19.3311C70.2115 20.0895 69.6099 21.0315 69.2808 22.1572C69.1727 22.6009 69.1087 23.0451 69.0888 23.4897Z" fill="#BFD4E5"/>
<path d="M76.9146 27.8348C75.7205 28.5696 74.4234 28.7829 73.0232 28.4749C71.6685 28.1546 70.6033 27.3664 69.8275 26.1102C69.3509 25.2598 69.1047 24.3863 69.0887 23.4897C69.1087 23.0451 69.1727 22.6009 69.2807 22.1572C69.6098 21.0315 70.2115 20.0895 71.0856 19.3311C71.2764 19.1903 71.4713 19.0526 71.6704 18.9182C72.8933 18.2001 74.1965 18.0095 75.5801 18.3464C76.947 18.7122 77.9978 19.4921 78.7325 20.6861C78.7865 20.7797 78.8253 20.8791 78.849 20.9843C79.4747 22.1548 79.6181 23.373 79.2793 24.6391C79.1975 25.0109 79.0719 25.3618 78.9025 25.6917C78.5089 26.5841 77.8462 27.2985 76.9146 27.8348Z" fill="#5393C5"/>
<path d="M8.4711 74.0482C8.56216 74.0238 8.59713 74.0632 8.576 74.1665C8.58374 74.2864 8.56871 74.4125 8.53091 74.5446L6.78096 77.5757C6.73096 77.6623 6.621 77.7528 6.45106 77.8471C6.37666 77.8426 6.29616 77.8154 6.20956 77.7654C4.60964 76.8032 3.56565 75.4115 3.07759 73.5901L3.03429 73.5651C2.52183 71.6527 2.73672 69.8138 3.67895 68.0484C4.66672 66.2708 6.08795 65.1091 7.94263 64.5633L8.14753 64.5084C7.9781 64.8384 7.85251 65.1892 7.77075 65.5611C7.43192 66.8271 7.57535 68.0454 8.20106 69.2158C7.87444 69.4482 7.61061 69.7385 7.40957 70.0868C7.08398 70.784 6.9816 71.4947 7.10242 72.2188C7.13129 72.2355 7.16626 72.2749 7.20733 72.3371C7.37368 73.049 7.79494 73.6193 8.4711 74.0482ZM17.9614 66.7102C18.1703 66.9011 18.3824 67.1005 18.5975 67.3084C19.9974 68.617 20.7259 70.2885 20.7831 72.3229C20.7824 74.324 20.1112 76.0534 18.7693 77.5111C18.7526 77.5399 18.7359 77.5688 18.7193 77.5977C17.3696 78.9354 15.7664 79.6456 13.9096 79.7283C13.7897 79.7361 13.6864 79.7149 13.5998 79.6649C13.5588 79.6027 13.5488 79.52 13.5699 79.4167L13.4061 75.8004C13.3817 75.7093 13.3862 75.6349 13.4195 75.5772C13.5439 75.495 13.6517 75.4418 13.7427 75.4174C14.4623 75.3709 15.0921 75.0802 15.6319 74.5451C15.6486 74.5162 15.6653 74.4874 15.6819 74.4585C16.1929 73.9067 16.4419 73.2422 16.4288 72.4648C16.4099 71.8494 16.2551 71.3174 15.9645 70.8689C16.8387 70.1105 17.4403 69.1685 17.7694 68.0427C17.8774 67.599 17.9414 67.1549 17.9614 66.7102Z" fill="#BFD4E5"/>
<path d="M10.1354 62.3652C11.3294 61.6305 12.6265 61.4171 14.0267 61.7251C15.3814 62.0454 16.4467 62.8336 17.2226 64.0898C17.6991 64.9401 17.9454 65.8136 17.9613 66.7102C17.9414 67.1549 17.8774 67.599 17.7694 68.0427C17.4403 69.1685 16.8387 70.1105 15.9645 70.8689C15.7738 71.0097 15.5788 71.1474 15.3797 71.2819C14.1569 72 12.8536 72.1906 11.4701 71.8537C10.1032 71.4879 9.05233 70.708 8.31756 69.514C8.26361 69.4205 8.22477 69.3211 8.20105 69.2158C7.57534 68.0454 7.4319 66.8271 7.77074 65.5611C7.8525 65.1892 7.97809 64.8384 8.14752 64.5084C8.54111 63.616 9.20373 62.9016 10.1354 62.3652Z" fill="#5393C5"/>
<defs>
<radialGradient id="paint0_radial_2_13413" cx="0" cy="0" r="1" gradientUnits="userSpaceOnUse" gradientTransform="translate(46 39.8) scale(18.1975 13.5875)">
<stop stop-opacity="0.301961"/>
<stop offset="1" stop-opacity="0"/>
</radialGradient>
</defs>
</svg>
