<svg width="61" height="98" viewBox="0 0 61 98" fill="none" xmlns="http://www.w3.org/2000/svg">
<path d="M13.35 34.35L9.65001 34.15C9.25001 34.1167 8.88335 34.25 8.55001 34.55C8.21668 34.85 8.03335 35.2167 8.00001 35.65C7.76668 40.35 5.90001 44.4833 2.40001 48.05C2.10001 48.2833 1.95001 48.6167 1.95001 49.05C1.91668 49.5167 2.03335 49.9 2.30001 50.2V50.25C2.33335 50.2167 2.36668 50.1833 2.40001 50.15C7.56668 45.65 11.0333 40.7 12.8 35.3C12.9 34.9667 13.0833 34.65 13.35 34.35Z" fill="#454A51"/>
<path d="M23.8 34.95L13.35 34.35C13.0833 34.65 12.9 34.9666 12.8 35.3C11.0333 40.7 7.56665 45.65 2.39999 50.15C2.36665 50.1833 2.33332 50.2166 2.29999 50.25C2.59999 50.55 2.94999 50.7333 3.34999 50.8C14.35 51.9666 21.65 47.4166 25.25 37.15C25.35 36.7833 25.3667 36.45 25.3 36.15C25.2 35.8166 25.0167 35.55 24.75 35.35C24.45 35.0833 24.1333 34.95 23.8 34.95Z" fill="#3C3E41"/>
<path d="M46.75 35.3C46.65 34.9666 46.4667 34.65 46.2 34.35L35.75 34.95C35.4167 34.95 35.1 35.0833 34.8 35.35C34.5334 35.55 34.35 35.8166 34.25 36.15C34.1834 36.45 34.2 36.7833 34.3 37.15C37.9 47.4166 45.2 51.9666 56.2 50.8C56.6 50.7333 56.95 50.55 57.25 50.25C57.2167 50.2166 57.1834 50.1833 57.15 50.15C51.9834 45.65 48.5167 40.7 46.75 35.3Z" fill="#3C3E41"/>
<path d="M51.55 35.65C51.5167 35.2167 51.3333 34.85 51 34.55C50.6667 34.25 50.3 34.1167 49.9 34.15L46.2 34.35C46.4667 34.65 46.65 34.9667 46.75 35.3C48.5167 40.7 51.9833 45.65 57.15 50.15C57.1833 50.1833 57.2167 50.2167 57.25 50.25V50.2C57.5167 49.9 57.6333 49.5167 57.6 49.05C57.6 48.6167 57.45 48.2833 57.15 48.05C53.65 44.4833 51.7833 40.35 51.55 35.65Z" fill="#454A51"/>
<path d="M23.388 70.9976C24.755 72.9774 25.8392 74.4859 26.6405 75.523C27.4418 76.5601 27.3829 77.6325 26.4636 78.7402C25.5679 79.7773 24.4248 80.3547 23.0342 80.4725C21.6436 80.5903 20.4298 80.2249 19.3927 79.3764C17.1066 77.4672 15.2446 75.2987 13.807 72.871L22.2921 68.9823C22.6221 69.7366 22.9874 70.4083 23.388 70.9976Z" fill="#BF7958"/>
<path d="M20.5246 61.6993C20.7131 63.0664 20.937 64.3273 21.1962 65.4822L12.0394 69.1941C11.4973 67.8035 11.0613 66.3304 10.7314 64.7748C10.0716 61.6636 9.85955 58.246 10.0954 54.5221C10.1897 53.1079 10.7554 51.9295 11.7925 50.9867C12.8531 50.0204 14.067 49.5844 15.434 49.6787C16.8246 49.6552 17.9913 50.162 18.934 51.1991C19.8532 52.2126 20.2539 53.4146 20.136 54.8052C19.9945 57.3036 20.124 59.6016 20.5246 61.6993Z" fill="#3DBF7B"/>
<path d="M13.807 72.871L12.7463 73.2953L10.7312 69.7244L12.0394 69.1941L21.1962 65.4822L22.0801 65.0934L23.5649 68.4167L22.2921 68.9824L13.807 72.871Z" fill="#25A863"/>
<path d="M38.1619 70.9976C36.795 72.9774 35.7108 74.4859 34.9095 75.523C34.1082 76.5601 34.1671 77.6325 35.0864 78.7402C35.9821 79.7773 37.1252 80.3547 38.5158 80.4725C39.9064 80.5903 41.1202 80.2249 42.1572 79.3764C44.4434 77.4672 46.3053 75.2987 47.743 72.871L39.2579 68.9823C38.9279 69.7366 38.5626 70.4083 38.1619 70.9976Z" fill="#BF7958"/>
<path d="M41.0254 61.6993C40.8368 63.0664 40.613 64.3273 40.3537 65.4822L49.5106 69.1941C50.0527 67.8035 50.4887 66.3304 50.8186 64.7748C51.4784 61.6636 51.6904 58.246 51.4546 54.5221C51.3603 53.1079 50.7946 51.9295 49.7575 50.9867C48.6968 50.0204 47.483 49.5844 46.116 49.6787C44.7254 49.6552 43.5587 50.162 42.616 51.1991C41.6968 52.2126 41.2961 53.4146 41.414 54.8052C41.5555 57.3036 41.426 59.6016 41.0254 61.6993Z" fill="#3DBF7B"/>
<path d="M47.743 72.871L48.8037 73.2953L50.8187 69.7244L49.5106 69.1941L40.3538 65.4822L39.4699 65.0934L37.9851 68.4167L39.2579 68.9824L47.743 72.871Z" fill="#25A863"/>
<path d="M49.9 97.95L50 94.95H35.05V97.95H49.9Z" fill="white"/>
<path d="M50 94.95C46.7667 94.05 44.85 92.05 44.25 88.95H35.05V94.95H50Z" fill="#BFD4E5"/>
<path d="M44.25 88.95H44.3L44.45 83.95H35.05V88.95H44.25Z" fill="#BF7958"/>
<path d="M44.9 74.75C44.9 73.15 44.2667 71.7834 43 70.65C41.7667 69.5167 40.25 68.95 38.45 68.95C36.6833 68.95 35.1667 69.5167 33.9 70.65C32.6333 71.7834 32 73.15 32 74.75C33.9667 76.35 34.9833 79.4167 35.05 83.95H44.45L44.9 74.75Z" fill="#676AC6"/>
<path d="M12.1 97.95L12 94.95H26.95V97.95H12.1Z" fill="white"/>
<path d="M12 94.95C15.2333 94.05 17.15 92.05 17.75 88.95H26.95V94.95H12Z" fill="#BFD4E5"/>
<path d="M17.75 88.95H17.7L17.55 83.95H26.95V88.95H17.75Z" fill="#BF7958"/>
<path d="M17.1 74.75C17.1 73.15 17.7333 71.7834 19 70.65C20.2333 69.5167 21.75 68.95 23.55 68.95C25.3167 68.95 26.8333 69.5167 28.1 70.65C29.3667 71.7834 30 73.15 30 74.75C28.0333 76.35 27.0167 79.4167 26.95 83.95H17.55L17.1 74.75Z" fill="#676AC6"/>
<path d="M17.25 75.5C17.2166 76.9333 17.4166 78.45 17.85 80.05H43.15C43.5833 78.45 43.7833 76.9333 43.75 75.5H17.25Z" fill="#676AC6"/>
<path d="M17.0999 70.55H20.0499C20.5499 67.7167 19.0333 65.05 15.4999 62.55L15.6999 63.35C16.3999 65.5833 16.8666 67.9833 17.0999 70.55ZM45.2999 63.35L45.4999 62.55C41.9666 65.05 40.4666 67.7167 40.9999 70.55H43.9499C44.1833 67.9833 44.6333 65.5833 45.2999 63.35ZM40.4499 62.95C40.4499 62.3833 39.4999 61.8833 37.5999 61.45C35.6333 61.1167 33.2666 60.95 30.4999 60.95C27.7333 60.95 25.3666 61.1167 23.3999 61.45C21.4999 61.8833 20.5499 62.3833 20.5499 62.95C20.5499 63.5167 21.4999 63.9667 23.3999 64.3C25.3666 64.7333 27.7333 64.95 30.4999 64.95C33.2666 64.95 35.6333 64.7333 37.5999 64.3C39.4999 63.9667 40.4499 63.5167 40.4499 62.95Z" fill="#25A863"/>
<path d="M45.1 70.55H43.95H41H20.05H17.1H15.95L16.7 75.5H17.25H43.75H44.35L45.1 70.55Z" fill="#3C3E41"/>
<path d="M48.75 56.2C49.4166 52.8333 48.7166 51.0833 46.65 50.95C46.4833 50.95 46.3166 50.95 46.15 50.95H14.85C12.4166 50.8167 11.55 52.5667 12.25 56.2C13.7166 58.3 14.8666 60.6833 15.7 63.35L15.5 62.55C19.0333 65.05 20.55 67.7167 20.05 70.55H41C40.4666 67.7167 41.9666 65.05 45.5 62.55L45.3 63.35C46.1333 60.6833 47.2833 58.3 48.75 56.2ZM37.6 61.45C39.5 61.8833 40.45 62.3833 40.45 62.95C40.45 63.5167 39.5 63.9667 37.6 64.3C35.6333 64.7333 33.2666 64.95 30.5 64.95C27.7333 64.95 25.3666 64.7333 23.4 64.3C21.5 63.9667 20.55 63.5167 20.55 62.95C20.55 62.3833 21.5 61.8833 23.4 61.45C25.3666 61.1167 27.7333 60.95 30.5 60.95C33.2666 60.95 35.6333 61.1167 37.6 61.45Z" fill="#3DBF7B"/>
<path d="M41.05 50.8C40.85 52.9334 39.85 54.7667 38.05 56.3C35.95 58.0667 33.4333 58.95 30.5 58.95C27.5666 58.95 25.05 58.0667 22.95 56.3C21.15 54.8 20.1666 53 20 50.9C19.6333 51.7334 19.45 52.6 19.45 53.5C19.45 53.6667 19.4666 53.8334 19.5 54C19.6 56.0667 20.65 57.8167 22.65 59.25C24.8166 60.8834 27.4333 61.7 30.5 61.7C33.5666 61.7 36.2 60.8834 38.4 59.25C40.4 57.8167 41.45 56.0667 41.55 54C41.5833 53.8334 41.6 53.6667 41.6 53.5C41.6 52.5667 41.4166 51.6667 41.05 50.8Z" fill="white"/>
<path d="M41.1 50C41.1 47.5334 40.0833 45.4 38.05 43.6C35.95 41.9 33.4333 41.05 30.5 41.05C27.5666 41.05 25.05 41.9 22.95 43.6C20.9166 45.4 19.9 47.5334 19.9 50C19.9 50.1667 19.9166 50.3334 19.95 50.5C19.95 50.6334 19.9666 50.7667 20 50.9C20.1666 53 21.15 54.8 22.95 56.3C25.05 58.0667 27.5666 58.95 30.5 58.95C33.4333 58.95 35.95 58.0667 38.05 56.3C39.85 54.7667 40.85 52.9334 41.05 50.8C41.05 50.7 41.05 50.6 41.05 50.5C41.0833 50.3334 41.1 50.1667 41.1 50Z" fill="#BF7958"/>
<path d="M45.6448 42.55C41.7256 39.95 36.9773 38.65 31.4 38.65C25.8227 38.65 21.0242 39.95 17.0045 42.55C13.0853 45.2167 11.1257 48.4 11.1257 52.1C11.1257 55.8 13.0853 58.95 17.0045 61.55C21.0242 64.2167 25.8227 65.55 31.4 65.55C36.9773 65.55 41.7256 64.2167 45.6448 61.55C49.6645 58.95 51.6743 55.8 51.6743 52.1C51.6743 48.4 49.6645 45.2167 45.6448 42.55Z" fill="url(#paint0_radial_2_9760)"/>
<path d="M53.2165 24.069C52.4152 19.3222 49.6481 15.4074 44.9152 12.3247C39.7535 8.94629 33.7702 7.56751 26.9651 8.18832C20.16 8.80914 14.525 11.2478 10.0599 15.5044C5.99605 19.3897 3.9996 23.7391 4.07054 28.5525C4.92931 33.9301 7.72827 38.3775 12.4674 41.8949C17.6745 45.7712 23.6805 47.3989 30.4856 46.7781C37.2907 46.1573 42.903 43.4696 47.3227 38.7151C51.3804 34.3952 53.3449 29.5132 53.2165 24.069Z" fill="#3C3E41"/>
<path d="M53.1346 22.6205C52.5834 16.5789 49.7043 11.62 44.4973 7.74367C39.2963 3.93376 33.2933 2.33921 26.4882 2.96003C19.6831 3.58084 14.0677 6.23532 9.64199 10.9235C5.25553 15.6749 3.33788 21.0715 3.88904 27.1131C3.93446 27.611 3.99497 28.0908 4.07056 28.5525C3.99963 23.7391 5.99608 19.3897 10.0599 15.5044C14.525 11.2478 20.1601 8.80913 26.9651 8.18832C33.7702 7.5675 39.7536 8.94628 44.9152 12.3246C49.6482 15.4074 52.4153 19.3222 53.2165 24.069C53.2073 23.6013 53.18 23.1184 53.1346 22.6205Z" fill="#454A51"/>
<path d="M3.34413 35.9993C3.544 38.1902 4.4952 39.9946 6.19772 41.4125C7.9063 42.8967 9.85604 43.5389 12.0469 43.339C14.2047 43.1422 16.006 42.1578 17.451 40.3858C18.8689 38.6833 19.4778 36.7366 19.278 34.5457C19.072 32.2884 18.1178 30.4508 16.4153 29.033C14.6766 27.585 12.7283 26.9594 10.5706 27.1562C8.37971 27.3561 6.57685 28.3239 5.16202 30.0596C3.74417 31.7621 3.1382 33.742 3.34413 35.9993ZM6.5309 35.7086C6.4128 34.414 6.77154 33.2097 7.60713 32.0959C8.45181 31.0816 9.53806 30.5139 10.8659 30.3928C12.2269 30.2686 13.3979 30.6304 14.379 31.4781C15.4024 32.4224 15.9731 33.5418 16.0912 34.8364C16.2123 36.1643 15.8506 37.3353 15.0059 38.3496C14.1974 39.394 13.1127 39.9783 11.7517 40.1025C10.4239 40.2236 9.2513 39.8452 8.234 38.9674C7.21974 38.1227 6.65204 37.0364 6.5309 35.7086ZM47.4176 23.7947C45.2267 23.9946 43.4238 24.9624 42.009 26.6981C40.5912 28.4006 39.9852 30.3806 40.1911 32.6378C40.391 34.8287 41.3422 36.6331 43.0447 38.051C44.7533 39.5352 46.703 40.1774 48.8939 39.9775C51.0517 39.7807 52.853 38.7963 54.298 37.0244C55.7159 35.3218 56.3248 33.3751 56.125 31.1842C55.919 28.9269 54.9648 27.0894 53.2623 25.6715C51.5236 24.2235 49.5753 23.5979 47.4176 23.7947ZM48.5987 36.741C47.2709 36.8621 46.0983 36.4837 45.081 35.6059C44.0667 34.7612 43.499 33.6749 43.3779 32.3471C43.2598 31.0525 43.6185 29.8483 44.4541 28.7344C45.2988 27.7201 46.3851 27.1524 47.7129 27.0313C49.0407 26.9102 50.2117 27.2719 51.226 28.1166C52.2494 29.0609 52.8201 30.1803 52.9382 31.475C53.0593 32.8028 52.6976 33.9738 51.8529 34.9881C51.0112 36.0355 49.9265 36.6198 48.5987 36.741Z" fill="#BF7958"/>
<path d="M7.60716 32.0959C6.77156 33.2097 6.41282 34.414 6.53092 35.7086C6.65206 37.0364 7.21976 38.1227 8.23403 38.9673C9.25132 39.8452 10.4239 40.2236 11.7517 40.1025C13.1127 39.9783 14.1975 39.394 15.0059 38.3496C15.8506 37.3353 16.2124 36.1642 16.0912 34.8364C15.9731 33.5418 15.4024 32.4224 14.379 31.4781C13.398 30.6304 12.2269 30.2686 10.8659 30.3928C9.53809 30.5139 8.45184 31.0816 7.60716 32.0959ZM45.081 35.6059C46.0983 36.4837 47.2709 36.8621 48.5987 36.741C49.9265 36.6198 51.0113 36.0355 51.8529 34.9881C52.6976 33.9738 53.0594 32.8028 52.9382 31.4749C52.8201 30.1803 52.2494 29.0609 51.226 28.1166C50.2118 27.2719 49.0407 26.9102 47.7129 27.0313C46.3851 27.1524 45.2988 27.7201 44.4542 28.7344C43.6186 29.8483 43.2598 31.0525 43.3779 32.3471C43.4991 33.6749 44.0668 34.7612 45.081 35.6059Z" fill="#A8603F"/>
<path d="M48.9435 39.4207L49.1853 16.755L7.50836 20.5571L11.8475 42.8049C13.6568 47.5937 17.421 50.6979 23.1403 52.1175C26.0165 52.8258 28.7795 53.0256 31.429 52.7169C34.1239 52.538 36.8051 51.8416 39.4725 50.6275C44.8737 48.1934 48.0307 44.4578 48.9435 39.4207Z" fill="#BF7958"/>
<path d="M32.6517 39.702C33.3064 39.1737 33.6065 38.6108 33.552 38.0133C33.4975 37.4157 33.099 36.8998 32.3564 36.4655C31.6532 36.0945 30.8202 35.9529 29.8575 36.0407C28.9612 36.1225 28.2008 36.4094 27.5763 36.9016C26.9578 37.4601 26.6758 38.0381 26.7303 38.6356C26.7848 39.2331 27.1652 39.7339 27.8715 40.1381C28.5809 40.5755 29.3837 40.7533 30.28 40.6715C31.2426 40.5837 32.0332 40.2605 32.6517 39.702Z" fill="#955435"/>
<path d="M17.3683 36.7283C17.3562 36.5955 17.3456 36.4793 17.3365 36.3797C17.2305 35.2179 17.5214 34.1872 18.2092 33.2876C18.7794 32.5662 19.505 32.0816 20.3861 31.8338L14.6599 32.3562C16.1541 33.3245 17.0569 34.7818 17.3683 36.7283ZM24.1861 38.2652C24.5903 37.5589 24.747 36.7078 24.6561 35.7119C24.5683 34.7493 24.2602 33.9406 23.7319 33.2859C23.2036 32.6312 22.5908 32.3356 21.8937 32.3992C21.2298 32.4598 20.7139 32.8583 20.346 33.5948C19.9448 34.3343 19.7881 35.1854 19.876 36.148C19.9668 37.1439 20.2749 37.9526 20.8002 38.5741C21.2953 39.2318 21.8749 39.5304 22.5388 39.4699C23.2359 39.4063 23.785 39.0047 24.1861 38.2652ZM42.3825 34.0948C42.3916 34.1944 42.4022 34.3106 42.4143 34.4434C42.3684 32.4727 42.976 30.8776 44.2371 29.658L38.5607 30.1758C39.4721 30.26 40.2734 30.6053 40.9647 31.2117C41.8039 31.9719 42.2765 32.933 42.3825 34.0948ZM35.0629 34.7626C35.1538 35.7584 35.4618 36.5671 35.9871 37.1886C36.4823 37.8464 37.0784 38.1434 37.7755 38.0798C38.4394 38.0193 38.9719 37.6192 39.3731 36.8797C39.7773 36.1734 39.9339 35.3223 39.8431 34.3265C39.7552 33.3638 39.4472 32.5551 38.9188 31.9004C38.3905 31.2457 37.7944 30.9486 37.1305 31.0092C36.4334 31.0728 35.9008 31.4728 35.5329 32.2093C35.1317 32.9488 34.9751 33.7999 35.0629 34.7626Z" fill="#3C3E41"/>
<path d="M20.7799 31.7477C20.6472 31.7598 20.5159 31.7885 20.3861 31.8338C19.505 32.0816 18.7794 32.5662 18.2092 33.2876C17.5214 34.1872 17.2305 35.2178 17.3365 36.3797C17.3456 36.4793 17.3562 36.5955 17.3683 36.7282C17.5256 37.7181 17.9876 38.5629 18.7543 39.2628C19.6297 40.0532 20.6484 40.3954 21.8102 40.2894C22.9389 40.1865 23.8456 39.6686 24.5303 38.7359C25.2513 37.8333 25.5588 36.8011 25.4528 35.6393C25.3468 34.4774 24.8576 33.5179 23.9852 32.7607C23.143 31.9673 22.1576 31.622 21.0289 31.725C20.9293 31.7341 20.8463 31.7416 20.7799 31.7477ZM24.6561 35.7119C24.747 36.7078 24.5903 37.5589 24.1861 38.2652C23.785 39.0047 23.2359 39.4062 22.5388 39.4698C21.8749 39.5304 21.2953 39.2318 20.8002 38.5741C20.2749 37.9526 19.9668 37.1439 19.876 36.148C19.7882 35.1854 19.9448 34.3343 20.346 33.5948C20.7139 32.8583 21.2298 32.4598 21.8937 32.3992C22.5908 32.3356 23.2036 32.6312 23.7319 33.2859C24.2602 33.9406 24.5683 34.7493 24.6561 35.7119ZM38.5607 30.1758C38.4249 30.1547 38.2906 30.1502 38.1578 30.1624C38.0582 30.1714 37.9586 30.1805 37.859 30.1896C36.7304 30.2926 35.8403 30.8089 35.1887 31.7386C34.4677 32.6412 34.1602 33.6734 34.2662 34.8352C34.3722 35.9971 34.8614 36.9566 35.7338 37.7138C36.5429 38.5103 37.5117 38.857 38.6403 38.754C39.8354 38.645 40.7919 38.1226 41.5098 37.1869C42.1373 36.3598 42.4388 35.4453 42.4143 34.4433C42.4022 34.3106 42.3916 34.1944 42.3825 34.0948C42.2765 32.933 41.8039 31.9719 40.9647 31.2117C40.2734 30.6053 39.4721 30.26 38.5607 30.1758ZM35.9871 37.1886C35.4618 36.5671 35.1538 35.7584 35.0629 34.7625C34.9751 33.7999 35.1318 32.9488 35.5329 32.2093C35.9008 31.4728 36.4334 31.0728 37.1305 31.0092C37.7944 30.9486 38.3905 31.2457 38.9188 31.9004C39.4472 32.5551 39.7552 33.3638 39.8431 34.3265C39.9339 35.3223 39.7773 36.1734 39.3731 36.8797C38.9719 37.6192 38.4394 38.0193 37.7755 38.0798C37.0784 38.1434 36.4823 37.8464 35.9871 37.1886Z" fill="white"/>
<path d="M30.5704 42.7537C29.5745 42.8446 28.7749 43.2523 28.1716 43.9767C27.5712 44.7344 27.315 45.5946 27.4028 46.5572C27.4937 47.5531 27.9013 48.3527 28.6258 48.9561C29.3503 49.5594 30.2105 49.8156 31.2063 49.7248C32.169 49.637 32.952 49.2308 33.5553 48.5063C34.1919 47.7788 34.4647 46.9172 34.3739 45.9213C34.286 44.9586 33.8618 44.1605 33.1011 43.527C32.3766 42.9237 31.533 42.6659 30.5704 42.7537Z" fill="#A8603F"/>
<path d="M49.6135 25.3015L49.8463 16.8453L49.2985 16.8953L49.2213 16.0488L6.69788 19.9282L8.0402 27.4875C15.1651 26.7036 20.319 24.8611 23.502 21.9599C27.345 25.9272 31.2129 27.7834 35.1059 27.5287L36.2682 24.3098C40.9011 25.5607 45.3495 25.8913 49.6135 25.3015Z" fill="#3C3E41"/>
<path d="M45.8308 16.3079C45.2331 15.6261 44.5041 14.973 43.6438 14.3485C39.6744 11.5643 34.3536 10.4765 27.6813 11.0852C21.009 11.6939 15.9879 13.7084 12.618 17.1287C12.3676 17.3189 12.17 17.5378 12.0252 17.7853C11.5033 18.3015 11.087 18.8751 10.7764 19.5059C10.4265 20.0734 10.4358 20.7252 10.8042 21.4615C14.8623 18.6143 20.6424 16.8486 28.1446 16.1641C35.5804 15.4858 41.5666 16.1614 46.103 18.191C46.3352 17.4334 46.2444 16.8058 45.8308 16.3079Z" fill="#71A2BE"/>
<path d="M13.5785 33.7101C13.9284 33.1426 14.0383 32.5133 13.9083 31.8223L12.7477 26.2547L7.81818 26.7044L9.13289 32.8604C9.25985 33.5183 9.62669 34.0538 10.2334 34.4671C10.8009 34.817 11.412 34.9118 12.0669 34.7517L12.1166 34.7472C12.7745 34.6202 13.2618 34.2745 13.5785 33.7101Z" fill="#3C3E41"/>
<path d="M44.7303 29.0104C44.7275 29.7136 44.9495 30.3126 45.3963 30.8074C45.8431 31.3022 46.4015 31.5525 47.0715 31.5583L47.1213 31.5537C47.7943 31.5928 48.3782 31.3889 48.8729 30.9421C49.3949 30.4258 49.6587 29.8328 49.6646 29.1628L49.8437 22.8705L44.8643 23.3248L44.7303 29.0104Z" fill="#3C3E41"/>
<path d="M14.2326 26.5711L14.4551 29.011L23.6302 26.6677L23.444 24.6262L14.2326 26.5711ZM43.3946 28.1281L43.1721 25.6883L33.8106 25.4377L33.9968 27.4793L43.3946 28.1281Z" fill="#3C3E41"/>
<path d="M50.3093 35.1289C50.0861 35.6179 50.0621 36.0887 50.2373 36.5413L51.5829 40.2845C51.7581 40.7371 52.0736 41.0765 52.5293 41.3027C52.9821 41.4957 53.4514 41.5031 53.9372 41.3249L53.987 41.3204C54.4396 41.1452 54.779 40.8297 55.0052 40.374C55.2284 39.885 55.2509 39.3976 55.0726 38.9118L53.7315 35.2184C53.5564 34.7657 53.2243 34.4278 52.7353 34.2047C52.2494 34.0147 51.7967 34.0058 51.3773 34.1779L51.3275 34.1825C50.8417 34.3607 50.5023 34.6762 50.3093 35.1289Z" fill="#EEA160"/>
<path d="M9.82738 38.822C9.55564 38.4117 9.16475 38.1628 8.6547 38.0755L8.60491 38.08C8.12806 37.9896 7.66786 38.0818 7.22433 38.3566C6.78382 38.6645 6.51837 39.0569 6.42798 39.5338L5.82714 43.4044C5.73979 43.9144 5.85009 44.3897 6.15805 44.8302C6.46298 45.2375 6.83728 45.4879 7.28093 45.5813L7.33073 45.5768C7.84077 45.6641 8.30097 45.5719 8.71131 45.3002C9.15182 44.9922 9.41727 44.5998 9.50765 44.123L10.1537 40.1981C10.2441 39.7212 10.1353 39.2625 9.82738 38.822Z" fill="#EEA160"/>
<defs>
<radialGradient id="paint0_radial_2_9760" cx="0" cy="0" r="1" gradientUnits="userSpaceOnUse" gradientTransform="translate(31.4 52.1) scale(20.4816 13.5875)">
<stop stop-opacity="0.301961"/>
<stop offset="1" stop-opacity="0"/>
</radialGradient>
</defs>
</svg>
